# xmcd
#
# Track frame offsets: 
#        150
#        54752
#        98105
#
# Disc length: 2381 seconds
#
# Revision: 2
# Processed by: cddbd v1.5.2PL0 Copyright (c) Steve Scherf et al.
# Submitted via: ExactAudioCopy v1.3
#
DISCID=18094b03
DTITLE=峰厚介 - Out Of Chaos [EW-7003]
DYEAR=1974
DGENRE=Jazz
TTITLE0=Recollection
TTITLE1=Little Abi
TTITLE2=Cross Wind
EXTD=YEAR: 1974
EXTT0=
EXTT1=
EXTT2=
PLAYORDER=
